<svg width="341" height="108" viewBox="0 0 341 108" fill="none" xmlns="http://www.w3.org/2000/svg">
<path d="M3.672 79V32.632H28.152C32.808 32.632 36.312 33.736 38.664 35.944C41.064 38.152 42.264 41.272 42.264 45.304C42.264 47.752 41.784 49.816 40.824 51.496C39.912 53.128 38.688 54.4 37.152 55.312C39.264 56.08 40.92 57.208 42.12 58.696C43.32 60.184 43.92 62.416 43.92 65.392C43.92 69.808 42.624 73.192 40.032 75.544C37.44 77.848 33.72 79 28.872 79H3.672ZM15.264 51.496H24.696C26.712 51.496 28.176 51.04 29.088 50.128C30 49.216 30.456 47.944 30.456 46.312C30.456 44.536 30 43.216 29.088 42.352C28.176 41.44 26.52 40.984 24.12 40.984H15.264V51.496ZM15.264 70.72H25.848C27.96 70.72 29.52 70.288 30.528 69.424C31.584 68.56 32.112 67.024 32.112 64.816C32.112 63.04 31.608 61.72 30.6 60.856C29.592 59.944 27.864 59.488 25.416 59.488H15.264V70.72ZM49.797 79V32.632H59.733L79.461 60.352V32.632H91.125V79H81.117L61.389 51.352V79H49.797ZM98.4533 79V32.632H110.045V50.632L126.029 32.632H139.277L122.717 51.568L140.285 79H127.901L115.517 58.984L110.045 64.96V79H98.4533ZM176.424 79.72C173.352 79.72 170.472 79.48 167.784 79C165.144 78.568 162.864 77.92 160.944 77.056V67.192C163.056 68.104 165.384 68.848 167.928 69.424C170.52 70 172.968 70.288 175.272 70.288C178.152 70.288 180.288 70.024 181.68 69.496C183.12 68.968 183.84 67.816 183.84 66.04C183.84 64.84 183.48 63.88 182.76 63.16C182.088 62.44 180.96 61.816 179.376 61.288C177.84 60.712 175.728 60.04 173.04 59.272C169.872 58.312 167.352 57.256 165.48 56.104C163.608 54.904 162.264 53.464 161.448 51.784C160.632 50.104 160.224 48.04 160.224 45.592C160.224 41.176 161.808 37.792 164.976 35.44C168.144 33.088 172.824 31.912 179.016 31.912C181.704 31.912 184.32 32.128 186.864 32.56C189.408 32.944 191.472 33.4 193.056 33.928V43.864C190.992 43.048 188.904 42.448 186.792 42.064C184.728 41.68 182.712 41.488 180.744 41.488C178.152 41.488 176.04 41.728 174.408 42.208C172.824 42.688 172.032 43.792 172.032 45.52C172.032 46.528 172.32 47.344 172.896 47.968C173.472 48.544 174.456 49.072 175.848 49.552C177.288 50.032 179.232 50.608 181.68 51.28C185.472 52.288 188.376 53.512 190.392 54.952C192.408 56.344 193.8 57.976 194.568 59.848C195.336 61.672 195.72 63.736 195.72 66.04C195.72 70.12 194.136 73.432 190.968 75.976C187.8 78.472 182.952 79.72 176.424 79.72ZM201.602 79V32.632H213.194V50.992H231.338V32.632H242.93V79H231.338V60.64H213.194V79H201.602ZM271.93 79.72C264.394 79.72 258.658 77.8 254.722 73.96C250.786 70.12 248.818 64.144 248.818 56.032C248.818 47.44 250.786 41.272 254.722 37.528C258.658 33.784 264.394 31.912 271.93 31.912C279.466 31.912 285.202 33.784 289.138 37.528C293.074 41.272 295.042 47.44 295.042 56.032C295.042 64.144 293.074 70.12 289.138 73.96C285.202 77.8 279.466 79.72 271.93 79.72ZM271.93 69.856C275.818 69.856 278.65 68.752 280.426 66.544C282.25 64.288 283.162 60.784 283.162 56.032C283.162 50.848 282.25 47.2 280.426 45.088C278.65 42.928 275.818 41.848 271.93 41.848C267.994 41.848 265.114 42.928 263.29 45.088C261.514 47.2 260.626 50.848 260.626 56.032C260.626 60.784 261.514 64.288 263.29 66.544C265.114 68.752 267.994 69.856 271.93 69.856ZM300.953 79V32.632H323.777C327.473 32.632 330.521 33.376 332.921 34.864C335.321 36.304 337.097 38.272 338.249 40.768C339.449 43.264 340.049 46.072 340.049 49.192C340.049 52.36 339.377 55.168 338.033 57.616C336.689 60.064 334.769 61.984 332.273 63.376C329.825 64.72 326.897 65.392 323.489 65.392H312.545V79H300.953ZM312.545 56.464H320.897C323.345 56.464 325.169 55.792 326.369 54.448C327.617 53.104 328.241 51.328 328.241 49.12C328.241 46.72 327.665 44.872 326.513 43.576C325.409 42.232 323.657 41.56 321.257 41.56H312.545V56.464Z" fill="url(#paint0_linear_1_1342)"/>
<defs>
<linearGradient id="paint0_linear_1_1342" x1="341" y1="54" x2="0" y2="54" gradientUnits="userSpaceOnUse">
<stop stop-color="#173F5F"/>
<stop offset="1" stop-color="#0D0D0D"/>
</linearGradient>
</defs>
</svg>
